HIERARCHY
ROOT Hips
{
	OFFSET -1.183845 70.721100 -4.620803
	CHANNELS 6 Xposition Yposition Zposition Xrotation Yrotation Zrotation
	JOINT Chest
	{
		OFFSET 0.771255 13.620499 -0.203233
		CHANNELS 3 Xrotation Yrotation Zrotation
		JOINT Chest2
		{
			OFFSET -4.997931 20.650337 2.766027
			CHANNELS 3 Xrotation Yrotation Zrotation
			JOINT Chest3
			{
				OFFSET -2.785441 14.603943 1.336461
				CHANNELS 3 Xrotation Yrotation Zrotation
				JOINT Neck
				{
					OFFSET -2.276324 16.969246 2.340710
					CHANNELS 3 Xrotation Yrotation Zrotation
					JOINT Head
					{
						OFFSET -4.578082 9.370544 1.030482
						CHANNELS 3 Xrotation Yrotation Zrotation
						End Site
						{
							OFFSET -4.515721 9.402924 1.010464
						}
					}
				}
				JOINT LeftCollar
				{
					OFFSET -1.862242 12.307198 6.846109
					CHANNELS 3 Xrotation Yrotation Zrotation
					JOINT LeftUpArm
					{
						OFFSET 14.651302 -3.384277 9.076634
						CHANNELS 3 Xrotation Yrotation Zrotation
						JOINT LeftLowArm
						{
							OFFSET 10.520871 -31.245567 7.263173
							CHANNELS 3 Xrotation Yrotation Zrotation
							JOINT LeftHand
							{
								OFFSET -3.562065 -29.143974 6.235981
								CHANNELS 3 Xrotation Yrotation Zrotation
								End Site
								{
									OFFSET -0.778505 -6.369587 1.362919
								}
							}
						}
					}
				}
				JOINT RightCollar
				{
					OFFSET -6.419641 12.670769 -0.220505
					CHANNELS 3 Xrotation Yrotation Zrotation
					JOINT RightUpArm
					{
						OFFSET -1.130584 -3.860260 -17.097269
						CHANNELS 3 Xrotation Yrotation Zrotation
						JOINT RightLowArm
						{
							OFFSET 2.428660 -31.053101 -13.020821
							CHANNELS 3 Xrotation Yrotation Zrotation
							JOINT RightHand
							{
								OFFSET -3.263740 -29.621742 -3.585464
								CHANNELS 3 Xrotation Yrotation Zrotation
								End Site
								{
									OFFSET -0.713324 -6.474125 -0.783646
								}
							}
						}
					}
				}
			}
		}
	}
	JOINT LeftUpLeg
	{
		OFFSET 4.180459 -0.101044 9.106739
		CHANNELS 3 Xrotation Yrotation Zrotation
		JOINT LeftLowLeg
		{
			OFFSET -33.037483 -23.197330 24.787052
			CHANNELS 3 Xrotation Yrotation Zrotation
			JOINT LeftFoot
			{
				OFFSET 37.511902 -17.471031 -16.976170
				CHANNELS 3 Xrotation Yrotation Zrotation
				JOINT LeftToe
				{
					OFFSET -4.571888 -23.131552 1.894543
					CHANNELS 3 Xrotation Yrotation Zrotation
					End Site
					{
						OFFSET -17.092703 -14.735628 7.089412
					}
				}
			}
		}
	}
	JOINT RightUpLeg
	{
		OFFSET -4.180473 0.100845 -9.106740
		CHANNELS 3 Xrotation Yrotation Zrotation
		JOINT RightLowLeg
		{
			OFFSET -21.634918 -42.114357 1.524575
			CHANNELS 3 Xrotation Yrotation Zrotation
			JOINT RightFoot
			{
				OFFSET 41.460751 2.080984 -16.651043
				CHANNELS 3 Xrotation Yrotation Zrotation
				JOINT RightToe
				{
					OFFSET 20.496418 -8.514225 -8.183031
					CHANNELS 3 Xrotation Yrotation Zrotation
					End Site
					{
						OFFSET 10.561886 -20.570034 -4.987629
					}
				}
			}
		}
	}
}
MOTION
Frames: 17
Frame Time: 0.033333
-6.976966 104.910423 -1.111728 14.503167 65.930068 -2.106158 -11.870333 2.702389 -18.210884 -0.790668 0.529662 -1.607596 4.491771 -7.017242 5.481147 -2.749388 10.142660 -16.958499 -0.000000 0.000001 0.000001 3.623904 6.008292 -4.612633 6.064501 -1.996699 -7.922790 -0.509125 4.426804 2.944386 -0.000001 -0.000001 -0.000001 -2.320314 -1.334454 0.514890 -9.736044 7.933680 -2.692160 -4.715690 -1.625072 -2.645152 -0.000000 -0.000000 -0.000001 25.576991 12.782339 42.778902 -30.017336 43.434826 -96.390246 15.413705 -3.128217 8.264802 -0.000000 0.000002 -0.000001 -0.486085 0.716725 20.060945 -18.105001 14.039156 -100.435828 -15.578374 -1.591225 -35.116414 -0.000000 -0.000000 0.000000 
-6.977084 104.909668 -1.117540 15.068627 65.798696 -2.283013 -12.078326 2.792701 -18.552921 -0.918979 0.487488 -1.735114 4.704735 -7.322449 5.572139 -2.662239 10.445536 -17.064026 0.000001 0.000001 -0.000001 3.506029 6.779441 -4.778412 5.971759 -2.056546 -8.000807 -0.364865 4.469890 2.850220 0.000001 -0.000003 -0.000001 -2.346254 -0.889466 0.607905 -9.546542 7.410145 -2.437060 -4.932981 -1.582538 -3.093237 0.000000 0.000003 0.000001 25.441464 12.699728 42.685489 -30.100691 43.421152 -96.345098 15.439702 -2.982392 8.306008 -0.000002 0.000002 -0.000001 -0.740555 0.779075 19.809625 -18.007539 14.145393 -100.424620 -15.723457 -1.702726 -35.214734 -0.000000 0.000002 0.000002 
-6.979204 104.910751 -1.124957 15.298466 65.951043 -2.483519 -12.074164 2.778108 -18.399032 -1.089373 0.449688 -1.958371 4.871331 -7.423818 5.580082 -2.685945 10.252908 -17.330942 0.000000 0.000001 0.000002 3.408642 6.594949 -4.916000 5.847889 -1.682012 -8.019064 -0.022741 4.882477 3.009183 -0.000001 0.000001 -0.000001 -2.494563 -1.055953 0.340922 -9.380437 6.743731 -2.514471 -5.243267 -2.123920 -2.931248 0.000000 0.000002 -0.000001 25.290362 12.592538 42.547735 -30.081202 43.417986 -96.119183 15.603803 -3.006916 8.461727 -0.000001 0.000004 -0.000003 -0.768736 0.769279 19.882816 -18.094233 14.014519 -100.581851 -15.936687 -1.600341 -35.157736 -0.000002 0.000001 0.000004 
-6.980176 104.915627 -1.133140 15.334471 66.098138 -2.663853 -12.124407 2.790197 -18.373636 -1.007316 0.385238 -1.610513 4.828890 -7.453975 5.309524 -2.626178 10.182934 -17.019320 0.000000 0.000001 0.000001 3.455168 6.273326 -4.954093 5.902699 -1.657535 -8.117766 -0.105844 5.105386 3.222251 0.000002 -0.000001 -0.000000 -2.649735 -1.223423 0.313954 -9.373833 6.926613 -2.744202 -5.140020 -2.440635 -2.727410 0.000001 0.000001 0.000001 25.239842 12.524876 42.576148 -30.252776 43.330607 -95.921148 15.655528 -2.962999 8.535600 -0.000001 0.000000 -0.000001 -0.794692 0.821882 19.873542 -18.106579 13.989989 -100.185194 -16.321582 -1.570385 -35.639343 -0.000002 0.000000 0.000004 
-6.978984 104.923492 -1.141246 14.854403 65.971206 -2.492421 -12.001891 2.757749 -18.249577 -0.912830 0.408786 -1.462630 4.683092 -7.332567 5.186518 -2.748550 10.084011 -17.252974 -0.000000 0.000000 -0.000001 3.662063 5.886119 -4.921034 5.840128 -1.595337 -7.901239 -0.302003 4.918055 2.977891 -0.000000 -0.000004 -0.000001 -2.655174 -1.136730 0.435397 -9.448514 7.132100 -2.845494 -4.885943 -2.461172 -2.581751 -0.000001 -0.000004 -0.000000 25.349130 12.690709 42.883940 -30.054093 43.337393 -96.098241 15.446910 -2.995009 8.417453 -0.000001 0.000003 -0.000001 -0.684259 0.820150 19.992763 -18.004792 13.868120 -99.996695 -16.803445 -1.522902 -35.671773 -0.000002 0.000001 0.000001 
-6.978556 104.924469 -1.146354 15.021452 65.907473 -2.521599 -12.018621 2.781817 -18.354750 -0.870256 0.370139 -1.299861 4.683459 -7.428671 5.132641 -2.829518 10.168711 -17.517209 0.000000 0.000002 0.000001 3.570743 6.189343 -4.922450 5.873071 -1.576181 -7.941492 -0.303600 4.937261 2.788098 -0.000000 0.000001 -0.000000 -2.559141 -0.895029 0.424143 -9.445116 6.944294 -2.683467 -5.102366 -2.369253 -2.870173 -0.000000 -0.000000 -0.000001 25.355009 12.717360 42.913549 -30.023305 43.390768 -96.336164 15.469135 -2.634986 8.575787 -0.000001 0.000001 -0.000003 -0.744868 0.815716 19.878041 -17.950347 13.844793 -99.896783 -16.905709 -1.522310 -35.544274 -0.000001 0.000002 0.000002 
-6.976804 104.931305 -1.155582 15.194295 65.672446 -2.513772 -12.075999 2.806699 -18.507328 -0.968532 0.406820 -1.592512 4.770339 -7.290511 5.504129 -2.797213 10.261184 -17.380598 0.000001 0.000001 0.000002 3.532062 6.625338 -4.879575 5.708044 -2.145416 -8.266919 -0.088474 4.920761 3.050853 -0.000000 0.000003 -0.000001 -2.599589 -0.671447 0.639976 -9.392950 7.234847 -2.726386 -4.825658 -2.172094 -2.877013 -0.000001 -0.000002 -0.000001 25.285920 12.748302 42.899090 -29.935049 43.294684 -96.608716 15.166449 -2.647100 8.343245 0.000000 0.000002 -0.000003 -0.830806 0.823680 19.721915 -17.945535 14.049103 -100.085774 -16.455188 -1.606845 -35.220922 -0.000001 0.000000 -0.000001 
-6.971129 104.937943 -1.164305 15.487078 65.840469 -2.751700 -12.296956 2.881394 -18.817692 -0.789440 0.306488 -1.056173 4.692778 -7.436080 5.149743 -2.711054 10.353030 -17.095472 -0.000000 0.000001 0.000002 3.636429 6.500563 -4.843210 5.720603 -2.174620 -8.151337 -0.467513 4.774441 2.577133 -0.000000 -0.000006 -0.000001 -2.555052 -0.572060 0.739757 -9.408205 7.355231 -2.563693 -4.623862 -2.157448 -2.974567 -0.000001 -0.000002 -0.000002 25.304608 12.769539 42.930451 -30.010270 43.362989 -96.748229 15.250422 -2.589705 8.401510 -0.000001 0.000004 0.000000 -0.960664 0.861684 19.576637 -17.902199 14.102141 -99.930305 -16.016394 -1.619437 -35.364046 -0.000004 -0.000000 0.000000 
-6.962317 104.945160 -1.172522 15.104504 65.643111 -2.608585 -12.041237 2.739089 -18.225400 -1.241667 0.427193 -2.104943 5.035362 -7.161695 5.903976 -2.751952 10.316512 -16.944169 0.000001 -0.000000 0.000001 3.723608 6.059534 -4.861868 5.574797 -2.497242 -8.374341 -0.614134 4.688581 2.759295 0.000000 0.000003 0.000001 -2.643606 -0.929997 0.710271 -9.349280 7.414433 -2.581540 -4.650235 -1.977073 -3.002838 0.000003 -0.000004 0.000001 25.394961 12.805090 42.966452 -30.123661 43.243362 -96.338978 15.238922 -2.828586 8.284729 -0.000001 0.000001 0.000000 -0.834456 0.833695 19.667905 -17.896559 14.082160 -99.796939 -15.984091 -1.715425 -35.115608 -0.000001 0.000000 0.000002 
-6.954014 104.950531 -1.179820 15.526297 65.759210 -2.725288 -12.219739 2.836244 -18.637261 -0.994369 0.427317 -1.687992 4.852350 -7.392921 5.596005 -2.536297 10.383127 -16.683142 -0.000000 0.000003 0.000001 3.400795 6.720804 -4.854713 5.832014 -1.901480 -8.050811 -0.104229 5.031808 2.717222 0.000001 -0.000004 -0.000000 -2.512424 -0.660280 0.616581 -9.286546 6.974707 -2.420847 -4.783648 -2.356779 -2.857846 0.000001 -0.000000 -0.000001 25.407177 12.865045 43.095768 -29.929291 43.566642 -97.015194 15.391845 -2.737219 8.394854 0.000000 0.000000 -0.000001 -0.778742 0.812594 19.786828 -18.062659 14.259577 -100.269322 -15.950073 -1.775881 -34.941930 -0.000001 -0.000000 0.000000 
-6.944126 104.949905 -1.185790 15.826605 66.141981 -3.216313 -12.273592 2.813749 -18.513762 -1.077981 0.268883 -1.528619 4.934810 -7.394760 5.434051 -2.611846 10.269501 -16.626897 -0.000000 0.000000 0.000001 3.307496 7.007778 -4.895150 5.871269 -1.780182 -8.037790 0.074732 5.134983 2.518716 0.000000 -0.000004 0.000000 -2.555654 -1.282576 0.421717 -9.164872 6.797112 -2.431798 -5.136583 -2.429431 -3.091135 -0.000000 -0.000000 -0.000000 25.243578 13.024149 43.440717 -29.782999 43.503404 -97.254893 15.601894 -2.335864 8.636670 -0.000000 0.000004 0.000000 -0.776766 0.834824 20.174427 -18.178207 14.441223 -100.567309 -15.558790 -1.831481 -35.135087 -0.000000 0.000000 0.000002 
-6.933842 104.948700 -1.190024 16.004112 66.132105 -3.161335 -12.292834 2.846676 -18.674265 -1.317936 0.353210 -2.154085 5.155084 -7.319220 5.992408 -2.651332 10.184962 -16.852761 0.000000 -0.000001 -0.000001 3.123968 6.784858 -4.583512 6.152146 -1.793315 -8.045019 -0.026978 4.793051 2.505827 -0.000001 -0.000002 0.000001 -2.393557 -1.671988 0.356312 -9.373696 7.114004 -2.396421 -5.035066 -2.095839 -3.119145 0.000001 0.000005 0.000002 25.240324 12.842105 43.011323 -30.078661 43.407266 -96.737328 15.651285 -3.008631 8.417368 0.000000 0.000003 -0.000003 -0.884996 0.849376 19.737223 -18.141975 14.229237 -100.047313 -15.595369 -1.693002 -35.009702 -0.000002 -0.000000 0.000002 
-6.917326 104.948135 -1.192961 15.852999 66.209771 -3.202063 -12.242804 2.788990 -18.457893 -1.151475 0.330165 -1.757697 4.956579 -7.353876 5.640149 -2.681290 10.285612 -16.905557 -0.000000 0.000003 0.000000 3.110611 6.552589 -4.539430 6.235237 -1.882390 -8.053476 -0.164822 4.488692 2.401259 -0.000001 -0.000001 -0.000002 -2.355052 -1.653425 0.326057 -9.246426 7.052052 -2.297817 -5.021888 -1.970681 -3.043910 -0.000000 0.000001 0.000001 25.367510 12.914841 43.238485 -30.050428 43.514534 -96.905515 15.716579 -3.116776 8.431251 0.000000 0.000002 -0.000003 -0.817692 0.859349 19.776999 -18.183977 14.180013 -99.908155 -15.147468 -1.763073 -34.730843 0.000000 0.000000 0.000002 
-6.896890 104.949860 -1.191282 15.318086 65.809665 -2.700910 -12.021252 2.743950 -18.329977 -0.949580 0.522992 -1.757322 4.594987 -7.214508 5.580758 -2.520527 10.306236 -16.675330 0.000001 -0.000000 0.000001 3.271420 6.708650 -4.582573 6.158322 -2.061902 -8.204895 -0.432547 4.583122 2.234496 0.000000 0.000001 -0.000001 -2.400821 -1.429827 0.495095 -9.425707 7.404393 -2.461872 -4.625875 -2.062490 -2.968828 0.000001 0.000001 0.000001 25.558539 12.888194 43.277889 -30.036775 43.527829 -97.064324 15.430425 -2.515637 8.503270 -0.000002 0.000003 0.000000 -0.748650 0.892032 19.533916 -18.010628 14.136650 -99.695169 -15.761351 -1.741021 -34.753912 0.000001 0.000001 0.000000 
-6.874500 104.956818 -1.193369 15.608236 65.932813 -2.903337 -12.114684 2.751982 -18.331625 -0.929972 0.415632 -1.496851 4.606697 -7.468972 5.279292 -2.547157 10.426255 -16.848120 0.000000 0.000000 -0.000001 3.435074 6.824733 -4.720001 6.022980 -2.194687 -8.242855 -0.496193 4.597966 2.471977 -0.000001 -0.000005 -0.000002 -2.489282 -1.017822 0.638718 -9.459746 7.583871 -2.649202 -4.368352 -2.109449 -2.893957 0.000004 0.000000 -0.000002 25.467815 12.834444 43.221174 -29.950154 43.601124 -97.316125 15.533407 -2.494932 8.536832 0.000001 0.000001 -0.000006 -0.851481 0.923020 19.472154 -17.984749 14.215106 -99.817409 -16.042712 -1.788103 -34.890027 -0.000001 0.000002 0.000002 
-6.847818 104.971176 -1.195016 15.406974 65.757633 -2.940761 -12.123205 2.730521 -18.185855 -1.045057 0.414711 -1.713630 4.711944 -7.186993 5.554862 -2.390662 10.194054 -16.358404 0.000000 0.000001 0.000001 3.488321 6.396973 -4.752905 6.127717 -1.993915 -8.150397 -0.635676 4.531761 2.652597 0.000002 -0.000006 0.000001 -2.410885 -1.308332 0.430796 -9.344471 7.308827 -2.519559 -4.771586 -1.888254 -3.220711 0.000002 0.000000 -0.000003 25.327815 12.718782 42.923347 -30.315040 43.201476 -96.199772 15.566834 -3.077090 8.296329 0.000001 0.000003 -0.000001 -0.974903 0.920840 19.327419 -17.776723 14.033311 -99.499819 -15.589980 -1.797358 -34.910207 -0.000000 -0.000000 0.000002 
-6.812437 104.990051 -1.190826 15.017726 65.605531 -2.624767 -11.957823 2.644664 -17.834742 -0.897961 0.436841 -1.476535 4.546295 -7.261872 5.201943 -2.409407 10.323086 -16.542576 0.000001 -0.000002 0.000001 3.371528 5.717787 -4.651305 6.395548 -1.417305 -7.679814 -0.645546 4.543628 2.412242 0.000000 -0.000002 0.000002 -2.390019 -0.988121 0.415694 -9.113553 6.948459 -2.334103 -5.120643 -1.848899 -3.458939 0.000001 -0.000002 0.000001 25.074377 12.196037 42.061295 -30.935453 42.578918 -94.209605 16.154210 -3.155764 8.646190 0.000000 0.000003 -0.000001 -1.032548 0.923941 18.961867 -17.492529 13.694359 -98.929901 -16.130231 -1.728090 -35.362628 -0.000001 0.000000 -0.000001 
